General Information
Complete name                            : 2 Headed Shark Attack (2012) DVDRip XviD BBnRG.avi
Format                                   : AVI
Format/Info                              : Audio Video Interleave
File size                                : 1.15 GiB
Duration                                 : 1h 27mn
Overall bit rate                         : 1 890 Kbps

Video
ID                                       : 0
Format                                   : MPEG-4 Visual
Format profile                           : Advanced Simple@L5
Format settings, BVOP                    : 2
Format settings, QPel                    : Yes
Format settings, GMC                     : No warppoints
Format settings, Matrix                  : Default (H.263)
Codec ID                                 : XVID
Codec ID/Hint                            : XviD
Duration                                 : 1h 27mn
Bit rate                                 : 1 498 Kbps
Width                                    : 680 pixels
Height                                   : 384 pixels
Display aspect ratio                     : 16:9
Frame rate                               : 29.970 fps
Color space                              : YUV
Chroma subsampling                       : 4:2:0
Bit depth                                : 8 bits
Scan type                                : Progressive
Compression mode                         : Lossy
Bits/(Pixel*Frame)                       : 0.191
Stream size                              : 932 MiB (79%)
Writing library                          : XviD 1.2.1 (UTC 2008-12-04)

Audio
ID                                       : 1
Format                                   : AC-3
Format/Info                              : Audio Coding 3
Mode extension                           : CM (complete main)
Codec ID                                 : 2000
Duration                                 : 1h 27mn
Bit rate mode                            : Constant
Bit rate                                 : 384 Kbps
Channel(s)                               : 6 channels
Channel positions                        : Front: L C R, Side: L R, LFE
Sampling rate                            : 48.0 KHz
Bit depth                                : 16 bits
Compression mode                         : Lossy
Stream size                              : 239 MiB (20%)
Alignment                                : Aligned on interleaves
Interleave, duration                     : 64 ms (1.92 video frames)
Interleave, preload duration             : 192 ms
Title                                    : 2 Headed Shark Attack (2012) BBnRG
Notes

Encoder:    FridayToker
Source(s):  UnKnOwN (thanks)  

Another fine release from BBnRG

Summary
88 min  -  Action | Horror | Sci-Fi   -  19 March 2012 (UK)

Survivors escape to a deserted atoll after a Semester at Sea ship is sunk by a mutated two-headed shark. But when

the atoll starts flooding, no one is safe from the double jaws of the monster.

IMDb Link: 
http://www.imdb.com/title/tt2043757/